<svg xmlns="http://www.w3.org/2000/svg" xmlns:xlink="http://www.w3.org/1999/xlink" width="56" height="45" viewBox="0 0 56 45">
    <defs>
        <path d="M0 44V.11h55.215V44z"/>
    </defs>
    <g fill="none" fill-rule="evenodd">
        <path fill="#8ECDFF" d="M12.715 18.937c-.985-.16-2.065-.045-2.675.95-.055-.75.145-1.295.42-1.675.86.031 1.591.314 2.255.725"/>
        <g transform="translate(0 .389)">
            <mask id="b" fill="#fff">
                <path d="M0 44V.11h55.215V44z"/>
            </mask>
            <path fill="#8ECDFF" d="M7.79 18.25c.02-.05-.84-2.395 1.5-3.25 3.03-1.11 5.205.985 9.5-.75 0 0-.3 1.495-2.25 2.5 0 0 3.83 3.995 3.9 8.945.275 3.86 6.57 1.19 8.765-1.78 2.195-2.97 1.975-11.835-7.53-8.835-.865-1.64-1.12-1.965-2.715-3.63-4.09-4.27-10.085-7.3-10.085-7.3s6.205-6.155 12.485 6.475c.325-.07.655-.125.99-.155-.155-.96-1.125-5.59-5.975-10.07 0 0 7.13-2.955 7.985 10.04.345.025.685.07 1.02.13.045-.79.345-7.225-1.755-10.17 0 0 6.345-1.19 3.52 10.66.195.07.905.39.905.39s2.25-2.93 1.575-8.55c0 0 5.75 1.06-.145 9.4.055.035.54.405.725.565.55-.25 3.775-1.905 3.92-6.215 0 0 4.705 3.52-2.755 7.375.28.32.46.55.69.905 1.06-.14 3.795-.69 5.065-3.78 0 0 2.875 4.155-4.255 5.185-.12.08 1.825 6.925-3.11 11.3 1.87.71 4.495-.14 6.515-.14.595-.005 2.98.08 3.45.09.34.005 11.355.255 13.6-1.86.365-.35.575-.64.63-.975.06-.475-.29-1.075-.745-1.43-1.565-1.225-5.835-1.045-7.41-.665l-2.185.49c-9.98 2.225-9.06-5.085-9.06-5.085 2.355 3.36 4.49 1.17 4.705 1.825 1.05 3.145 4.14 2.17 4.34 2.145l1.975-.47c.055-.015 5.621-1.068 8.394.724.856.553 1.282 1.467 1.243 2.573-.025.735-.547 1.535-1.078 2.003-1.588 1.4-5.828 2.028-7.96 2.285-.527.064-3.804.57-3.67.655 3.536 2.31 5.801 4.815 8.23.425 2.631 1.34 1.381 4.595 3.746 8.295 0 0-1.25.8-.85 1.56.4.755.58 1.645.58 1.645s-1.87.225-.625 1.92c0 0-1.695-.805-1.115-1.96-.215.355-.78 1.2-1.255 1.2 0 0-1.06-.755-1.595 1.115 0 0-.475-1.5.23-2.04-.335.175-.92.435-1.255.345-.49-.13-.36-.71-.715-.71s-1.16.09-1.335.665c0 0 .13-2.005 2.45-1.735 2.32.265 3.03-3.685.8-5.03-2.225-1.345-4.19 2.175-6.82.885-.935-.46-1.78-1.275-3.3-2.485-2.905 1.7-.695 4.59-.695 4.59s-1.255.805-.85 1.57c.4.76.58 1.66.58 1.66s-1.88.225-.625 1.925c0 0-1.705-.805-1.125-1.97-.22.36-.785 1.21-1.26 1.21 0 0-1.07-.765-1.61 1.12 0 0-.47-1.495.225-2.05-.34.18-.92.435-1.255.345-.49-.135-.36-.715-.715-.715-.36 0-1.165.09-1.345.67 0 0 0-1.745 2.465-1.745 1.885-.225 2.465-.945 2.33-2.11-.12-1.07-4.26-2.15-3.05-4.485.585-1.13 2.02-1.435 3.525-1.94-1.135-.555-4.34-.11-6.04 1.475-1.545 1.485-5.455.64-6 1.015-.545.375-.38 1.225-.38 1.225-3.06.355-3.8 2.305-5.9 3.32-4.225 1.185-10.25-.275-10.82 1.05-.37.85.58 1.66.58 1.66s-1.88.225-.625 1.925c0 0-1.705-.805-1.125-1.97-.22.36-.785 1.21-1.26 1.21 0 0-1.07-.765-1.61 1.12 0 0-.47-1.495.225-2.05.135-.065.23-.12.26-.14a.86.86 0 0 0-.26.14c-.34.18-.92.435-1.255.345-.49-.135-.36-.715-.715-.715-.36 0-1.165.09-1.345.67 0 0 0-1.745 2.465-1.745C4.35 40.28 4.24 39.195 4.98 38.5c.56-.535 2.12-.865 3.05-.88 2.185-.04 4.21-.845 5.02-1.175 1.23-.545 2.23-1.23 3.005-1.915.075-.07.15-.135.225-.205a4.563 4.563 0 0 1-2.27-3.945c-.064-.996.33-2.015.827-2.434 4.89-4.11-1.962-13.596-7.047-9.696z" mask="url(#b)"/>
        </g>
        <path fill="#8ECDFF" d="M3.936 18.771a1.426 1.426 0 1 1-2.853 0 1.426 1.426 0 0 1 2.853 0M14.92 34.269a17.298 17.298 0 0 1-2.945-.925c-1.57-.665-2.805-1.525-3.685-2.545-1.875-2.175-3.085-3-3.085-3s-1.215-.235-1.665-.98c-.515-.85-3.04-.585-3.04-.585.58-1.565 2.525-1.25 2.525-1.25s-.57-.295-.695-.97c-.155-.86-1.58-.565-1.58-.565 1-1.52 2.25-.39 2.25-.39.415-.055.955.13.955.13-.135-.365.71-1.13.71-1.13.375-.915-.71-1.395-.71-1.395 2.25 0 1.795 2.48 1.795 2.48.5-.41 1.455-.175 1.455-.175 1-.085.545-1.65.545-1.65 1.205 1 .915 2.26-.375 2.955-1.295.695-.625 1.565-.625 1.565 2.115 2.645 4.62 3.555 6.89 3.67-.105.41-.155.85-.13 1.275a5.093 5.093 0 0 0 1.41 3.485"/>
    </g>
</svg>
