<svg xmlns="http://www.w3.org/2000/svg" width="20" height="17" viewBox="0 0 20 17">
    <g fill="none" fill-rule="evenodd" opacity=".9">
        <path d="M-2-4h24v24H-2z"/>
        <path fill="#FFF" fill-rule="nonzero" d="M20 0L3 5v6l1.594.469-.157.437v.031c-.433 1.59.485 3.28 2.094 3.72l1.094.312c1.59.433 3.311-.484 3.75-2.094h-.031l.125-.375L20 16V0zM0 5v6h2V5H0zm6.5 7.031l3.063.906-.126.376v.03c-.16.591-.67.855-1.28.688l-1.095-.281c-.59-.161-.853-.671-.687-1.281h-.031l.156-.438z"/>
    </g>
</svg>
