<svg xmlns="http://www.w3.org/2000/svg" width="26" height="20" viewBox="0 0 26 20">
    <path fill="#FFF" fill-rule="nonzero" d="M13 0C9.233 0 5.906.392 3.875.688 2.197.931.84 2.2.531 3.874.268 5.302 0 7.387 0 10c0 2.612.268 4.699.531 6.125.31 1.675 1.665 2.944 3.344 3.188C5.912 19.608 9.253 20 13 20c3.746 0 7.087-.392 9.125-.688 1.68-.243 3.035-1.51 3.344-3.187.262-1.428.531-3.52.531-6.125 0-2.606-.267-4.696-.531-6.125C25.16 2.2 23.804.932 22.125.687 20.094.393 16.766 0 13 0zm0 2c3.632 0 6.88.37 8.844.656A1.963 1.963 0 0 1 23.5 4.25c.244 1.321.5 3.278.5 5.75 0 2.47-.257 4.428-.5 5.75a1.96 1.96 0 0 1-1.656 1.594C19.872 17.63 16.61 18 13 18c-3.61 0-6.873-.37-8.844-.656A1.963 1.963 0 0 1 2.5 15.75C2.257 14.43 2 12.478 2 10c0-2.479.257-4.43.5-5.75.153-.833.81-1.47 1.656-1.594A62.964 62.964 0 0 1 13 2zm-3 2.281V15.72l1.5-.844 7-4L20 10l-1.5-.875-7-4-1.5-.844zm2 3.438L15.969 10 12 12.281V7.72z"/>
</svg>
