<svg viewBox="0 0 100 100" xmlns="http://www.w3.org/2000/svg"><defs> <path d="M0 44V.11h55.215V44z"/>  <path d="M0 44V.11h55.215V44z"/> </defs><symbol viewBox="0 0 24 24" id="shape-arrow-carousel-blue"><title>arrow-carousel-blue</title> <path fill="#8ecdff" fill-rule="evenodd" d="M12 4l-1.4 1.4 5.6 5.6H4v2h12.2l-5.6 5.6L12 20l8-8z"/> </symbol><symbol viewBox="0 0 24 24" id="shape-arrow-carousel"><title>arrow-carousel</title> <path fill="#FFF" fill-rule="evenodd" d="M12 4l-1.4 1.4 5.6 5.6H4v2h12.2l-5.6 5.6L12 20l8-8z"/> </symbol><symbol viewBox="0 0 26 26" id="shape-arrow-up-blue"><title>arrow-up-blue</title><path fill="#8ecdff" d="M13 26C5.832 26 0 20.168 0 13S5.832 0 13 0s13 5.832 13 13-5.832 13-13 13zm0-2c6.087 0 11-4.913 11-11S19.087 2 13 2 2 6.913 2 13s4.913 11 11 11zm-1-4V9.72l-4 4-1.406-1.44 5.687-5.686.72-.72.72.72 5.686 5.687L18 13.72l-4-4V20h-2z"/></symbol><symbol viewBox="0 0 26 26" id="shape-arrow-up"><title>arrow-up</title><path fill="#FFF" d="M13 26C5.832 26 0 20.168 0 13S5.832 0 13 0s13 5.832 13 13-5.832 13-13 13zm0-2c6.087 0 11-4.913 11-11S19.087 2 13 2 2 6.913 2 13s4.913 11 11 11zm-1-4V9.72l-4 4-1.406-1.44 5.687-5.686.72-.72.72.72 5.686 5.687L18 13.72l-4-4V20h-2z"/></symbol><symbol viewBox="0 0 22 22" id="shape-facebook"><title>facebook</title> <path fill="#FFF" fill-rule="nonzero" d="M2 0C.907 0 0 .907 0 2v18c0 1.093.907 2 2 2h18c1.093 0 2-.907 2-2V2c0-1.093-.907-2-2-2H2zm0 2h18v18h-5.188v-6.75h2.594l.375-3h-2.968V8.312c0-.873.215-1.468 1.468-1.468h1.625V4.125c-.277-.037-1.24-.094-2.343-.094-2.305 0-3.876 1.386-3.876 3.969v2.25H9.063v3h2.624V20H2V2z"/> </symbol><symbol viewBox="0 0 22 22" id="shape-instagram"><title>instagram</title> <path fill="#FFF" fill-rule="nonzero" d="M6.469 0C2.916 0 0 2.915 0 6.469v9.062C0 19.084 2.915 22 6.469 22h9.062C19.084 22 22 19.085 22 15.531V6.47C22 2.916 19.085 0 15.531 0H6.47zm0 2h9.062A4.464 4.464 0 0 1 20 6.469v9.062A4.464 4.464 0 0 1 15.531 20H6.47A4.464 4.464 0 0 1 2 15.531V6.47A4.464 4.464 0 0 1 6.469 2zm10.437 2.188a.904.904 0 0 0-.906.906c0 .502.404.906.906.906a.904.904 0 0 0 .907-.906.904.904 0 0 0-.907-.907zM11 5c-3.302 0-6 2.698-6 6s2.698 6 6 6 6-2.698 6-6-2.698-6-6-6zm0 2c2.221 0 4 1.779 4 4s-1.779 4-4 4-4-1.779-4-4 1.779-4 4-4z"/> </symbol><symbol viewBox="0 0 24 10" id="shape-link"><title>link</title><g fill="none" fill-rule="evenodd" opacity=".2"><path d="M0-7h24v24H0z"/><path fill="#1C212F" fill-rule="nonzero" d="M5 0C2.2 0 0 2.2 0 5s2.2 5 5 5h3c1.6 0 3.1-.8 4-2 .9 1.2 2.4 2 4 2h3c2.8 0 5-2.2 5-5s-2.2-5-5-5h-3c-1.6 0-3.1.8-4 2-.9-1.2-2.4-2-4-2H5zm0 2h3c.9 0 1.688.4 2.188 1h3.624c.5-.6 1.288-1 2.188-1h3c1.7 0 3 1.3 3 3s-1.3 3-3 3h-3c-.9 0-1.688-.4-2.188-1h-3.624C9.688 7.6 8.9 8 8 8H5C3.3 8 2 6.7 2 5s1.3-3 3-3zm2.813 2A1.004 1.004 0 0 0 8 6h8a1 1 0 1 0 0-2H8a1 1 0 0 0-.094 0 1 1 0 0 0-.093 0z"/></g></symbol><symbol viewBox="0 0 56 45" id="shape-logo-hover"><title>logo-hover</title>  <g fill="none" fill-rule="evenodd"> <path fill="#8ECDFF" d="M12.715 18.937c-.985-.16-2.065-.045-2.675.95-.055-.75.145-1.295.42-1.675.86.031 1.591.314 2.255.725"/> <g transform="translate(0 .389)"> <mask fill="#fff"> <path d="M0 44V.11h55.215V44z"/> </mask> <path fill="#8ECDFF" d="M7.79 18.25c.02-.05-.84-2.395 1.5-3.25 3.03-1.11 5.205.985 9.5-.75 0 0-.3 1.495-2.25 2.5 0 0 3.83 3.995 3.9 8.945.275 3.86 6.57 1.19 8.765-1.78 2.195-2.97 1.975-11.835-7.53-8.835-.865-1.64-1.12-1.965-2.715-3.63-4.09-4.27-10.085-7.3-10.085-7.3s6.205-6.155 12.485 6.475c.325-.07.655-.125.99-.155-.155-.96-1.125-5.59-5.975-10.07 0 0 7.13-2.955 7.985 10.04.345.025.685.07 1.02.13.045-.79.345-7.225-1.755-10.17 0 0 6.345-1.19 3.52 10.66.195.07.905.39.905.39s2.25-2.93 1.575-8.55c0 0 5.75 1.06-.145 9.4.055.035.54.405.725.565.55-.25 3.775-1.905 3.92-6.215 0 0 4.705 3.52-2.755 7.375.28.32.46.55.69.905 1.06-.14 3.795-.69 5.065-3.78 0 0 2.875 4.155-4.255 5.185-.12.08 1.825 6.925-3.11 11.3 1.87.71 4.495-.14 6.515-.14.595-.005 2.98.08 3.45.09.34.005 11.355.255 13.6-1.86.365-.35.575-.64.63-.975.06-.475-.29-1.075-.745-1.43-1.565-1.225-5.835-1.045-7.41-.665l-2.185.49c-9.98 2.225-9.06-5.085-9.06-5.085 2.355 3.36 4.49 1.17 4.705 1.825 1.05 3.145 4.14 2.17 4.34 2.145l1.975-.47c.055-.015 5.621-1.068 8.394.724.856.553 1.282 1.467 1.243 2.573-.025.735-.547 1.535-1.078 2.003-1.588 1.4-5.828 2.028-7.96 2.285-.527.064-3.804.57-3.67.655 3.536 2.31 5.801 4.815 8.23.425 2.631 1.34 1.381 4.595 3.746 8.295 0 0-1.25.8-.85 1.56.4.755.58 1.645.58 1.645s-1.87.225-.625 1.92c0 0-1.695-.805-1.115-1.96-.215.355-.78 1.2-1.255 1.2 0 0-1.06-.755-1.595 1.115 0 0-.475-1.5.23-2.04-.335.175-.92.435-1.255.345-.49-.13-.36-.71-.715-.71s-1.16.09-1.335.665c0 0 .13-2.005 2.45-1.735 2.32.265 3.03-3.685.8-5.03-2.225-1.345-4.19 2.175-6.82.885-.935-.46-1.78-1.275-3.3-2.485-2.905 1.7-.695 4.59-.695 4.59s-1.255.805-.85 1.57c.4.76.58 1.66.58 1.66s-1.88.225-.625 1.925c0 0-1.705-.805-1.125-1.97-.22.36-.785 1.21-1.26 1.21 0 0-1.07-.765-1.61 1.12 0 0-.47-1.495.225-2.05-.34.18-.92.435-1.255.345-.49-.135-.36-.715-.715-.715-.36 0-1.165.09-1.345.67 0 0 0-1.745 2.465-1.745 1.885-.225 2.465-.945 2.33-2.11-.12-1.07-4.26-2.15-3.05-4.485.585-1.13 2.02-1.435 3.525-1.94-1.135-.555-4.34-.11-6.04 1.475-1.545 1.485-5.455.64-6 1.015-.545.375-.38 1.225-.38 1.225-3.06.355-3.8 2.305-5.9 3.32-4.225 1.185-10.25-.275-10.82 1.05-.37.85.58 1.66.58 1.66s-1.88.225-.625 1.925c0 0-1.705-.805-1.125-1.97-.22.36-.785 1.21-1.26 1.21 0 0-1.07-.765-1.61 1.12 0 0-.47-1.495.225-2.05.135-.065.23-.12.26-.14a.86.86 0 0 0-.26.14c-.34.18-.92.435-1.255.345-.49-.135-.36-.715-.715-.715-.36 0-1.165.09-1.345.67 0 0 0-1.745 2.465-1.745C4.35 40.28 4.24 39.195 4.98 38.5c.56-.535 2.12-.865 3.05-.88 2.185-.04 4.21-.845 5.02-1.175 1.23-.545 2.23-1.23 3.005-1.915.075-.07.15-.135.225-.205a4.563 4.563 0 0 1-2.27-3.945c-.064-.996.33-2.015.827-2.434 4.89-4.11-1.962-13.596-7.047-9.696z"/> </g> <path fill="#8ECDFF" d="M3.936 18.771a1.426 1.426 0 1 1-2.853 0 1.426 1.426 0 0 1 2.853 0M14.92 34.269a17.298 17.298 0 0 1-2.945-.925c-1.57-.665-2.805-1.525-3.685-2.545-1.875-2.175-3.085-3-3.085-3s-1.215-.235-1.665-.98c-.515-.85-3.04-.585-3.04-.585.58-1.565 2.525-1.25 2.525-1.25s-.57-.295-.695-.97c-.155-.86-1.58-.565-1.58-.565 1-1.52 2.25-.39 2.25-.39.415-.055.955.13.955.13-.135-.365.71-1.13.71-1.13.375-.915-.71-1.395-.71-1.395 2.25 0 1.795 2.48 1.795 2.48.5-.41 1.455-.175 1.455-.175 1-.085.545-1.65.545-1.65 1.205 1 .915 2.26-.375 2.955-1.295.695-.625 1.565-.625 1.565 2.115 2.645 4.62 3.555 6.89 3.67-.105.41-.155.85-.13 1.275a5.093 5.093 0 0 0 1.41 3.485"/> </g> </symbol><symbol viewBox="0 0 56 45" id="shape-logo"><title>logo</title>  <g fill="none" fill-rule="evenodd"> <path fill="#FFF" d="M12.715 18.937c-.985-.16-2.065-.045-2.675.95-.055-.75.145-1.295.42-1.675.86.031 1.591.314 2.255.725"/> <g transform="translate(0 .389)"> <mask fill="#fff"> <path d="M0 44V.11h55.215V44z"/> </mask> <path fill="#FFF" d="M7.79 18.25c.02-.05-.84-2.395 1.5-3.25 3.03-1.11 5.205.985 9.5-.75 0 0-.3 1.495-2.25 2.5 0 0 3.83 3.995 3.9 8.945.275 3.86 6.57 1.19 8.765-1.78 2.195-2.97 1.975-11.835-7.53-8.835-.865-1.64-1.12-1.965-2.715-3.63-4.09-4.27-10.085-7.3-10.085-7.3s6.205-6.155 12.485 6.475c.325-.07.655-.125.99-.155-.155-.96-1.125-5.59-5.975-10.07 0 0 7.13-2.955 7.985 10.04.345.025.685.07 1.02.13.045-.79.345-7.225-1.755-10.17 0 0 6.345-1.19 3.52 10.66.195.07.905.39.905.39s2.25-2.93 1.575-8.55c0 0 5.75 1.06-.145 9.4.055.035.54.405.725.565.55-.25 3.775-1.905 3.92-6.215 0 0 4.705 3.52-2.755 7.375.28.32.46.55.69.905 1.06-.14 3.795-.69 5.065-3.78 0 0 2.875 4.155-4.255 5.185-.12.08 1.825 6.925-3.11 11.3 1.87.71 4.495-.14 6.515-.14.595-.005 2.98.08 3.45.09.34.005 11.355.255 13.6-1.86.365-.35.575-.64.63-.975.06-.475-.29-1.075-.745-1.43-1.565-1.225-5.835-1.045-7.41-.665l-2.185.49c-9.98 2.225-9.06-5.085-9.06-5.085 2.355 3.36 4.49 1.17 4.705 1.825 1.05 3.145 4.14 2.17 4.34 2.145l1.975-.47c.055-.015 5.621-1.068 8.394.724.856.553 1.282 1.467 1.243 2.573-.025.735-.547 1.535-1.078 2.003-1.588 1.4-5.828 2.028-7.96 2.285-.527.064-3.804.57-3.67.655 3.536 2.31 5.801 4.815 8.23.425 2.631 1.34 1.381 4.595 3.746 8.295 0 0-1.25.8-.85 1.56.4.755.58 1.645.58 1.645s-1.87.225-.625 1.92c0 0-1.695-.805-1.115-1.96-.215.355-.78 1.2-1.255 1.2 0 0-1.06-.755-1.595 1.115 0 0-.475-1.5.23-2.04-.335.175-.92.435-1.255.345-.49-.13-.36-.71-.715-.71s-1.16.09-1.335.665c0 0 .13-2.005 2.45-1.735 2.32.265 3.03-3.685.8-5.03-2.225-1.345-4.19 2.175-6.82.885-.935-.46-1.78-1.275-3.3-2.485-2.905 1.7-.695 4.59-.695 4.59s-1.255.805-.85 1.57c.4.76.58 1.66.58 1.66s-1.88.225-.625 1.925c0 0-1.705-.805-1.125-1.97-.22.36-.785 1.21-1.26 1.21 0 0-1.07-.765-1.61 1.12 0 0-.47-1.495.225-2.05-.34.18-.92.435-1.255.345-.49-.135-.36-.715-.715-.715-.36 0-1.165.09-1.345.67 0 0 0-1.745 2.465-1.745 1.885-.225 2.465-.945 2.33-2.11-.12-1.07-4.26-2.15-3.05-4.485.585-1.13 2.02-1.435 3.525-1.94-1.135-.555-4.34-.11-6.04 1.475-1.545 1.485-5.455.64-6 1.015-.545.375-.38 1.225-.38 1.225-3.06.355-3.8 2.305-5.9 3.32-4.225 1.185-10.25-.275-10.82 1.05-.37.85.58 1.66.58 1.66s-1.88.225-.625 1.925c0 0-1.705-.805-1.125-1.97-.22.36-.785 1.21-1.26 1.21 0 0-1.07-.765-1.61 1.12 0 0-.47-1.495.225-2.05.135-.065.23-.12.26-.14a.86.86 0 0 0-.26.14c-.34.18-.92.435-1.255.345-.49-.135-.36-.715-.715-.715-.36 0-1.165.09-1.345.67 0 0 0-1.745 2.465-1.745C4.35 40.28 4.24 39.195 4.98 38.5c.56-.535 2.12-.865 3.05-.88 2.185-.04 4.21-.845 5.02-1.175 1.23-.545 2.23-1.23 3.005-1.915.075-.07.15-.135.225-.205a4.563 4.563 0 0 1-2.27-3.945c-.064-.996.33-2.015.827-2.434 4.89-4.11-1.962-13.596-7.047-9.696z"/> </g> <path fill="#FFF" d="M3.936 18.771a1.426 1.426 0 1 1-2.853 0 1.426 1.426 0 0 1 2.853 0M14.92 34.269a17.298 17.298 0 0 1-2.945-.925c-1.57-.665-2.805-1.525-3.685-2.545-1.875-2.175-3.085-3-3.085-3s-1.215-.235-1.665-.98c-.515-.85-3.04-.585-3.04-.585.58-1.565 2.525-1.25 2.525-1.25s-.57-.295-.695-.97c-.155-.86-1.58-.565-1.58-.565 1-1.52 2.25-.39 2.25-.39.415-.055.955.13.955.13-.135-.365.71-1.13.71-1.13.375-.915-.71-1.395-.71-1.395 2.25 0 1.795 2.48 1.795 2.48.5-.41 1.455-.175 1.455-.175 1-.085.545-1.65.545-1.65 1.205 1 .915 2.26-.375 2.955-1.295.695-.625 1.565-.625 1.565 2.115 2.645 4.62 3.555 6.89 3.67-.105.41-.155.85-.13 1.275a5.093 5.093 0 0 0 1.41 3.485"/> </g> </symbol><symbol viewBox="0 0 20 17" id="shape-megaphone"><title>megaphone</title> <g fill="none" fill-rule="evenodd" opacity=".9"> <path d="M-2-4h24v24H-2z"/> <path fill="#FFF" fill-rule="nonzero" d="M20 0L3 5v6l1.594.469-.157.437v.031c-.433 1.59.485 3.28 2.094 3.72l1.094.312c1.59.433 3.311-.484 3.75-2.094h-.031l.125-.375L20 16V0zM0 5v6h2V5H0zm6.5 7.031l3.063.906-.126.376v.03c-.16.591-.67.855-1.28.688l-1.095-.281c-.59-.161-.853-.671-.687-1.281h-.031l.156-.438z"/> </g> </symbol><symbol viewBox="0 0 13 22" id="shape-odnoklassniki"><title>odnoklassniki</title> <path fill="#FFF" fill-rule="nonzero" d="M6.372 3.327a2.353 2.353 0 0 1 2.35 2.351 2.353 2.353 0 0 1-2.35 2.35 2.354 2.354 0 0 1-2.351-2.35 2.354 2.354 0 0 1 2.35-2.35zm0 8.027a5.682 5.682 0 0 0 5.678-5.676A5.683 5.683 0 0 0 6.372 0 5.684 5.684 0 0 0 .694 5.678a5.683 5.683 0 0 0 5.678 5.676zm2.297 4.632c1.156-.263 2.27-.72 3.297-1.365a1.664 1.664 0 0 0-1.772-2.817 7.208 7.208 0 0 1-7.645 0A1.663 1.663 0 1 0 .777 14.62a10.65 10.65 0 0 0 3.297 1.365L.9 19.161a1.664 1.664 0 0 0 2.353 2.352l3.118-3.12 3.12 3.12a1.662 1.662 0 1 0 2.352-2.352L8.67 15.986z"/> </symbol><symbol viewBox="0 0 18 18" id="shape-search"><title>search</title> <g fill="none" fill-rule="evenodd"> <path d="M-3-3h24v24H-3z"/> <path fill="#FFF" d="M12.502 11h-.794l-.276-.274A6.47 6.47 0 0 0 13 6.5 6.5 6.5 0 1 0 6.5 13a6.47 6.47 0 0 0 4.225-1.566l.276.274v.792l4.998 4.991L17.49 16l-4.988-5zM6.5 11a4.5 4.5 0 1 1 0-9 4.5 4.5 0 0 1 0 9z"/> </g> </symbol><symbol viewBox="0 0 32 32" id="shape-user"><title>user</title> <path fill="#FFF" fill-rule="evenodd" d="M16 32C7.163 32 0 24.837 0 16S7.163 0 16 0s16 7.163 16 16-7.163 16-16 16zM5.567 21.933A11.996 11.996 0 0 0 16 28c4.47 0 8.368-2.443 10.433-6.067A19.907 19.907 0 0 0 16 19a19.907 19.907 0 0 0-10.433 2.933zM16 16a5 5 0 1 0 0-10 5 5 0 0 0 0 10z"/> </symbol><symbol viewBox="0 0 22 22" id="shape-vk"><title>vk</title> <path fill="#FFF" fill-rule="nonzero" d="M4.082 0A4.097 4.097 0 0 0 0 4.082v13.836A4.097 4.097 0 0 0 4.082 22h13.836A4.097 4.097 0 0 0 22 17.918V4.082A4.097 4.097 0 0 0 17.918 0H4.082zm0 2h13.836C19.079 2 20 2.92 20 4.082v13.836C20 19.079 19.08 20 17.918 20H4.082A2.067 2.067 0 0 1 2 17.918V4.082C2 2.921 2.92 2 4.082 2zm6.635 5.229c-.734-.007-1.357 0-1.71.173-.233.115-.414.37-.304.385.136.018.445.085.608.307.21.287.203.93.203.93s.12 1.775-.284 1.996c-.277.15-.657-.158-1.474-1.569a12.983 12.983 0 0 1-.735-1.523s-.06-.149-.17-.229c-.131-.097-.316-.129-.316-.129l-1.957.014s-.293.009-.4.137c-.096.114-.008.347-.008.347s1.532 3.582 3.266 5.387c1.592 1.654 3.396 1.547 3.396 1.547h.818s.247-.028.373-.164c.116-.125.112-.36.112-.36s-.015-1.096.494-1.257c.502-.16 1.146 1.06 1.83 1.529.517.355.91.277.91.277l1.828-.025s.955-.06.502-.813c-.037-.06-.262-.556-1.357-1.572-1.146-1.064-.994-.89.387-2.73.84-1.121 1.177-1.807 1.072-2.1-.1-.279-.719-.205-.719-.205l-2.059.014s-.152-.021-.265.047c-.111.066-.182.22-.182.22s-.326.868-.76 1.606c-.916 1.556-1.283 1.639-1.433 1.543-.35-.225-.262-.907-.262-1.389 0-1.508.23-2.136-.443-2.299-.224-.054-.388-.09-.961-.095z"/> </symbol><symbol viewBox="0 0 26 20" id="shape-youtube"><title>youtube</title> <path fill="#FFF" fill-rule="nonzero" d="M13 0C9.233 0 5.906.392 3.875.688 2.197.931.84 2.2.531 3.874.268 5.302 0 7.387 0 10c0 2.612.268 4.699.531 6.125.31 1.675 1.665 2.944 3.344 3.188C5.912 19.608 9.253 20 13 20c3.746 0 7.087-.392 9.125-.688 1.68-.243 3.035-1.51 3.344-3.187.262-1.428.531-3.52.531-6.125 0-2.606-.267-4.696-.531-6.125C25.16 2.2 23.804.932 22.125.687 20.094.393 16.766 0 13 0zm0 2c3.632 0 6.88.37 8.844.656A1.963 1.963 0 0 1 23.5 4.25c.244 1.321.5 3.278.5 5.75 0 2.47-.257 4.428-.5 5.75a1.96 1.96 0 0 1-1.656 1.594C19.872 17.63 16.61 18 13 18c-3.61 0-6.873-.37-8.844-.656A1.963 1.963 0 0 1 2.5 15.75C2.257 14.43 2 12.478 2 10c0-2.479.257-4.43.5-5.75.153-.833.81-1.47 1.656-1.594A62.964 62.964 0 0 1 13 2zm-3 2.281V15.72l1.5-.844 7-4L20 10l-1.5-.875-7-4-1.5-.844zm2 3.438L15.969 10 12 12.281V7.72z"/> </symbol></svg>