<svg xmlns="http://www.w3.org/2000/svg" width="22" height="22" viewBox="0 0 22 22">
    <path fill="#FFF" fill-rule="nonzero" d="M6.469 0C2.916 0 0 2.915 0 6.469v9.062C0 19.084 2.915 22 6.469 22h9.062C19.084 22 22 19.085 22 15.531V6.47C22 2.916 19.085 0 15.531 0H6.47zm0 2h9.062A4.464 4.464 0 0 1 20 6.469v9.062A4.464 4.464 0 0 1 15.531 20H6.47A4.464 4.464 0 0 1 2 15.531V6.47A4.464 4.464 0 0 1 6.469 2zm10.437 2.188a.904.904 0 0 0-.906.906c0 .502.404.906.906.906a.904.904 0 0 0 .907-.906.904.904 0 0 0-.907-.907zM11 5c-3.302 0-6 2.698-6 6s2.698 6 6 6 6-2.698 6-6-2.698-6-6-6zm0 2c2.221 0 4 1.779 4 4s-1.779 4-4 4-4-1.779-4-4 1.779-4 4-4z"/>
</svg>
