<svg xmlns="http://www.w3.org/2000/svg" width="24" height="10" viewBox="0 0 24 10"><g fill="none" fill-rule="evenodd" opacity=".2"><path d="M0-7h24v24H0z"/><path fill="#1C212F" fill-rule="nonzero" d="M5 0C2.2 0 0 2.2 0 5s2.2 5 5 5h3c1.6 0 3.1-.8 4-2 .9 1.2 2.4 2 4 2h3c2.8 0 5-2.2 5-5s-2.2-5-5-5h-3c-1.6 0-3.1.8-4 2-.9-1.2-2.4-2-4-2H5zm0 2h3c.9 0 1.688.4 2.188 1h3.624c.5-.6 1.288-1 2.188-1h3c1.7 0 3 1.3 3 3s-1.3 3-3 3h-3c-.9 0-1.688-.4-2.188-1h-3.624C9.688 7.6 8.9 8 8 8H5C3.3 8 2 6.7 2 5s1.3-3 3-3zm2.813 2A1.004 1.004 0 0 0 8 6h8a1 1 0 1 0 0-2H8a1 1 0 0 0-.094 0 1 1 0 0 0-.093 0z"/></g></svg>