<svg xmlns="http://www.w3.org/2000/svg" width="13" height="22" viewBox="0 0 13 22">
    <path fill="#FFF" fill-rule="nonzero" d="M6.372 3.327a2.353 2.353 0 0 1 2.35 2.351 2.353 2.353 0 0 1-2.35 2.35 2.354 2.354 0 0 1-2.351-2.35 2.354 2.354 0 0 1 2.35-2.35zm0 8.027a5.682 5.682 0 0 0 5.678-5.676A5.683 5.683 0 0 0 6.372 0 5.684 5.684 0 0 0 .694 5.678a5.683 5.683 0 0 0 5.678 5.676zm2.297 4.632c1.156-.263 2.27-.72 3.297-1.365a1.664 1.664 0 0 0-1.772-2.817 7.208 7.208 0 0 1-7.645 0A1.663 1.663 0 1 0 .777 14.62a10.65 10.65 0 0 0 3.297 1.365L.9 19.161a1.664 1.664 0 0 0 2.353 2.352l3.118-3.12 3.12 3.12a1.662 1.662 0 1 0 2.352-2.352L8.67 15.986z"/>
</svg>
