<svg xmlns="http://www.w3.org/2000/svg" width="22" height="22" viewBox="0 0 22 22">
    <path fill="#FFF" fill-rule="nonzero" d="M4.082 0A4.097 4.097 0 0 0 0 4.082v13.836A4.097 4.097 0 0 0 4.082 22h13.836A4.097 4.097 0 0 0 22 17.918V4.082A4.097 4.097 0 0 0 17.918 0H4.082zm0 2h13.836C19.079 2 20 2.92 20 4.082v13.836C20 19.079 19.08 20 17.918 20H4.082A2.067 2.067 0 0 1 2 17.918V4.082C2 2.921 2.92 2 4.082 2zm6.635 5.229c-.734-.007-1.357 0-1.71.173-.233.115-.414.37-.304.385.136.018.445.085.608.307.21.287.203.93.203.93s.12 1.775-.284 1.996c-.277.15-.657-.158-1.474-1.569a12.983 12.983 0 0 1-.735-1.523s-.06-.149-.17-.229c-.131-.097-.316-.129-.316-.129l-1.957.014s-.293.009-.4.137c-.096.114-.008.347-.008.347s1.532 3.582 3.266 5.387c1.592 1.654 3.396 1.547 3.396 1.547h.818s.247-.028.373-.164c.116-.125.112-.36.112-.36s-.015-1.096.494-1.257c.502-.16 1.146 1.06 1.83 1.529.517.355.91.277.91.277l1.828-.025s.955-.06.502-.813c-.037-.06-.262-.556-1.357-1.572-1.146-1.064-.994-.89.387-2.73.84-1.121 1.177-1.807 1.072-2.1-.1-.279-.719-.205-.719-.205l-2.059.014s-.152-.021-.265.047c-.111.066-.182.22-.182.22s-.326.868-.76 1.606c-.916 1.556-1.283 1.639-1.433 1.543-.35-.225-.262-.907-.262-1.389 0-1.508.23-2.136-.443-2.299-.224-.054-.388-.09-.961-.095z"/>
</svg>
